<svg xmlns="http://www.w3.org/2000/svg" viewBox="0 0 100 100"><title>B</title><g id="Ebene_2" data-name="Ebene 2"><g id="Ebene_1-2" data-name="Ebene 1"><g id="Ebene_2_Kopie" data-name="Ebene 2 Kopie"><path d="M54.9,44.54q6.91,0,6.92-6.33,0-6.1-8-6.11h-11V44.54Z"/><path d="M54.9,54.57H42.81V68.49H53q5.25,0,7.42-1.87a6.18,6.18,0,0,0,2.18-4.94v-.11a7.14,7.14,0,0,0-1.79-5.09Q59,54.58,54.9,54.57Z"/><path d="M50,0a50,50,0,1,0,50,50A50,50,0,0,0,50,0ZM73.29,63.16A14.36,14.36,0,0,1,68.6,74.32q-4.68,4.23-12.69,4.23H32.2V22h23q8.79,0,13,4.15t4.26,11.16a12.67,12.67,0,0,1-2.65,7.7q-2.64,3.57-8.43,4.55a12.88,12.88,0,0,1,8.73,4.64A13.72,13.72,0,0,1,73.29,63Z"/></g></g></g></svg>