<svg xmlns="http://www.w3.org/2000/svg" viewBox="0 0 220 100"><title>CD</title><g id="Ebene_2" data-name="Ebene 2"><g id="Ebene_1-2" data-name="Ebene 1"><g id="Ebene_2_Kopie" data-name="Ebene 2 Kopie"><path d="M50,0a50,50,0,1,0,50,50A50,50,0,0,0,50,0ZM44.3,65.77a8.89,8.89,0,0,0,7,2.72,8.69,8.69,0,0,0,5.91-2.1,11,11,0,0,0,3.3-6h11a27.41,27.41,0,0,1-3.83,10.15,18.48,18.48,0,0,1-6.9,6.39,20,20,0,0,1-9.52,2.2A22.91,22.91,0,0,1,40.2,76.67a16.56,16.56,0,0,1-7-7.17,24.81,24.81,0,0,1-2.41-11.43V42.56a24.81,24.81,0,0,1,2.41-11.41,16.6,16.6,0,0,1,7-7.21,22.8,22.8,0,0,1,11.06-2.49,19.52,19.52,0,0,1,9.54,2.3,18.9,18.9,0,0,1,6.92,6.66A28.77,28.77,0,0,1,71.51,41h-11a14.83,14.83,0,0,0-1.94-4.8,9.19,9.19,0,0,0-3.13-3,8.22,8.22,0,0,0-4.14-1,8.86,8.86,0,0,0-7,2.74q-2.44,2.74-2.45,7.72V58.07C41.85,61.39,42.67,64,44.3,65.77Z"/><path d="M180.67,34.82q-2.94-2.52-8.26-2.52h-8.28v36h8.28q5.33,0,8.26-2.52a8.93,8.93,0,0,0,2.94-7.16V42A8.93,8.93,0,0,0,180.67,34.82Z"/><path d="M170,0a50,50,0,1,0,50,50A50,50,0,0,0,170,0Zm24.45,58.3q0,9.65-5.83,15t-16.48,5.3H153.48V22h18.7q10.65,0,16.46,5.3t5.81,15Z"/></g></g></g></svg>